<svg xmlns="http://www.w3.org/2000/svg" width="636" height="599" fill="none" viewBox="0 0 636 599">
  <path fill="#E9E3D5" d="M257.281 594.356h-194v-55h194zm0-269h-194v-55h194z"/>
  <path fill="#E9E3D5" d="m320.281 503.772-49.149-34.415-63.131 90.16 49.149 34.415zm0-143.255-49.15 34.415-63.13-90.161 49.149-34.415z"/>
  <path fill="#E9E3D5" d="M320.281 360.356h-60v143h60zM541 41.356h-60v190h60zm-15 190h-30v252h30zm-135.719 363h194v-55h-194zm-93-331h-122v-55h122z"/>
  <path fill="#E9E3D5" d="m327.281 503.771 49.15-34.415 63.13 90.161-49.149 34.415zm60-167.254-49.15 34.415-89.749-128.176 49.15-34.415zM529.898 65.532l-49.15 34.415-45.885-65.533L484.012 0z"/>
  <path fill="#E9E3D5" d="m492 65.888 49.15 34.415 45.886-65.532L537.886.356zM327.281 336.356h60v167h-60zM0 503.771l49.15-34.415 63.13 90.161-49.149 34.415z"/>
  <path fill="#E9E3D5" d="M0 446.356h60v57H0zm63-446h194v55H63zm475 0h75v55h-75zm-54 0h-75v55h75z"/>
  <path fill="#E9E3D5" d="m0 90.941 49.149 34.415 63.13-90.16L63.132.78zm0 143.254 49.15-34.415 63.13 90.161-49.149 34.415z"/>
  <path fill="#E9E3D5" d="M0 234.356h60v-143H0zM320.281 90.941l-49.15 34.415-63.13-90.161L257.15.78z"/>
  <path fill="#E9E3D5" d="M320.281 148.356h-60v-57h60zm-196 87.5 51.75 27.28v-54.56l-51.75 27.28Zm511 331-51.75 27.28v-54.56l51.75 27.28ZM511 533.356l14.722-50.25h-29.444L511 533.356Zm-30-302.272 8.528-8.528 15.23 15.229-8.529 8.528zm59.758 0-8.529-8.529L517 237.785l8.529 8.528z"/>
</svg>
